<?xml version="1.0" encoding="utf-8"?>
<svg width="214px" height="75" viewBox="0 0 212 48" fill="none" xmlns="http://www.w3.org/2000/svg">
  <path d="M 19.672 3.353 C 20.438 3.358 21.202 3.364 21.933 3.364 L 29.362 3.364 C 30.092 3.364 30.857 3.358 31.622 3.353 C 33.682 3.339 35.746 3.324 37.142 3.414 C 42.226 3.739 45.733 6.82 46.183 12.054 C 46.29 13.935 46.288 16.201 46.285 18.873 L 46.285 18.874 C 46.284 19.332 46.284 19.803 46.284 20.285 L 46.284 27.715 C 46.284 28.197 46.284 28.668 46.285 29.126 C 46.288 31.799 46.29 34.065 46.183 35.946 C 45.733 41.18 42.226 44.261 37.142 44.586 C 35.746 44.676 33.682 44.661 31.622 44.647 C 30.857 44.642 30.092 44.636 29.362 44.636 L 21.933 44.636 C 21.202 44.636 20.438 44.642 19.672 44.647 C 17.612 44.661 15.549 44.676 14.152 44.586 C 9.068 44.261 5.562 41.18 5.111 35.946 C 5.004 34.065 5.007 31.799 5.01 29.127 L 5.01 29.126 C 5.01 28.668 5.011 28.197 5.011 27.715 L 5.011 20.285 C 5.011 19.803 5.01 19.332 5.01 18.874 L 5.01 18.873 C 5.007 16.201 5.004 13.935 5.111 12.054 C 5.562 6.82 9.068 3.739 14.152 3.414 C 15.549 3.324 17.612 3.339 19.672 3.353 Z" fill="url(#paint0_linear_2973_971)"/>
  <g filter="url(#filter0_dddddd_2973_971)" transform="matrix(1, 0, 0, 1, 0, -1.620099)">
    <path d="M11.7206 19.7347C11.7206 18.6836 12.5728 17.8314 13.624 17.8314H26.9475C29.6031 17.8314 31.7559 19.9842 31.7559 22.6399V31.5055C31.7559 32.5567 30.9038 33.4088 29.8526 33.4088H16.5291C13.8735 33.4088 11.7206 31.256 11.7206 28.6004V19.7347Z" fill="url(#paint1_linear_2973_971)"/>
    <path d="M13.624 18.0568H26.9475C29.4786 18.0568 31.5305 20.1087 31.5305 22.6399V31.5055C31.5305 32.4322 30.7793 33.1834 29.8526 33.1834H16.5291C13.9979 33.1834 11.946 31.1315 11.946 28.6004V19.7347C11.946 18.808 12.6973 18.0568 13.624 18.0568Z" stroke="url(#paint2_linear_2973_971)" stroke-width="0.450794"/>
  </g>
  <g filter="url(#filter1_dddddd_2973_971)" transform="matrix(1, 0, 0, 1, 0, -1.639192)">
    <path d="M32.958 23.3465C32.958 22.6986 33.2368 22.082 33.7232 21.6541L37.5404 18.2961C38.3494 17.5845 39.6197 18.1589 39.6197 19.2363V32.0421C39.6197 33.1094 38.3701 33.6874 37.5568 32.9964L34.0527 30.0193C33.3583 29.4293 32.958 28.564 32.958 27.6527V23.3465Z" fill="url(#paint3_linear_2973_971)"/>
    <path d="M33.8721 21.8234L37.6893 18.4654C38.3527 17.8818 39.3943 18.3528 39.3943 19.2363V32.0421C39.3943 32.9173 38.3696 33.3913 37.7027 32.8246L34.1987 29.8475C33.5546 29.3003 33.1834 28.4978 33.1834 27.6527V23.3465C33.1834 22.7634 33.4343 22.2085 33.8721 21.8234Z" stroke="url(#paint4_linear_2973_971)" stroke-width="0.450794"/>
  </g>
  <defs>
    <filter id="filter0_dddddd_2973_971" x="8.11429" y="16.479" width="27.248" height="22.7901" filterUnits="userSpaceOnUse" color-interpolation-filters="sRGB">
      <feFlood flood-opacity="0" result="BackgroundImageFix"/>
      <feColorMatrix in="SourceAlpha" type="matrix" values="0 0 0 0 0 0 0 0 0 0 0 0 0 0 0 0 0 0 127 0" result="hardAlpha"/>
      <feOffset dy="0.123703"/>
      <feGaussianBlur stdDeviation="0.0455686"/>
      <feColorMatrix type="matrix" values="0 0 0 0 0.0509804 0 0 0 0 0.121569 0 0 0 0 0.396078 0 0 0 0.189957 0"/>
      <feBlend mode="multiply" in2="BackgroundImageFix" result="effect1_dropShadow_2973_971"/>
      <feColorMatrix in="SourceAlpha" type="matrix" values="0 0 0 0 0 0 0 0 0 0 0 0 0 0 0 0 0 0 127 0" result="hardAlpha"/>
      <feOffset dy="0.242703"/>
      <feGaussianBlur stdDeviation="0.101348"/>
      <feColorMatrix type="matrix" values="0 0 0 0 0.0509804 0 0 0 0 0.121569 0 0 0 0 0.396078 0 0 0 0.368551 0"/>
      <feBlend mode="multiply" in2="effect1_dropShadow_2973_971" result="effect2_dropShadow_2973_971"/>
      <feColorMatrix in="SourceAlpha" type="matrix" values="0 0 0 0 0 0 0 0 0 0 0 0 0 0 0 0 0 0 127 0" result="hardAlpha"/>
      <feOffset dy="0.373252"/>
      <feGaussianBlur stdDeviation="0.173572"/>
      <feColorMatrix type="matrix" values="0 0 0 0 0.0509804 0 0 0 0 0.121569 0 0 0 0 0.396078 0 0 0 0.3 0"/>
      <feBlend mode="multiply" in2="effect2_dropShadow_2973_971" result="effect3_dropShadow_2973_971"/>
      <feColorMatrix in="SourceAlpha" type="matrix" values="0 0 0 0 0 0 0 0 0 0 0 0 0 0 0 0 0 0 127 0" result="hardAlpha"/>
      <feOffset dy="0.547679"/>
      <feGaussianBlur stdDeviation="0.551221"/>
      <feColorMatrix type="matrix" values="0 0 0 0 0.0509804 0 0 0 0 0.121569 0 0 0 0 0.396078 0 0 0 0.3 0"/>
      <feBlend mode="multiply" in2="effect3_dropShadow_2973_971" result="effect4_dropShadow_2973_971"/>
      <feColorMatrix in="SourceAlpha" type="matrix" values="0 0 0 0 0 0 0 0 0 0 0 0 0 0 0 0 0 0 127 0" result="hardAlpha"/>
      <feOffset dy="0.852209"/>
      <feGaussianBlur stdDeviation="1.0248"/>
      <feColorMatrix type="matrix" values="0 0 0 0 0.0509804 0 0 0 0 0.121569 0 0 0 0 0.396078 0 0 0 0.29 0"/>
      <feBlend mode="overlay" in2="effect4_dropShadow_2973_971" result="effect5_dropShadow_2973_971"/>
      <feColorMatrix in="SourceAlpha" type="matrix" values="0 0 0 0 0 0 0 0 0 0 0 0 0 0 0 0 0 0 127 0" result="hardAlpha"/>
      <feOffset dy="2.25397"/>
      <feGaussianBlur stdDeviation="1.80318"/>
      <feColorMatrix type="matrix" values="0 0 0 0 0.0509804 0 0 0 0 0.121569 0 0 0 0 0.396078 0 0 0 0.45 0"/>
      <feBlend mode="multiply" in2="effect5_dropShadow_2973_971" result="effect6_dropShadow_2973_971"/>
      <feBlend mode="normal" in="SourceGraphic" in2="effect6_dropShadow_2973_971" result="shape"/>
    </filter>
    <filter id="filter1_dddddd_2973_971" x="29.3517" y="16.6293" width="13.8744" height="22.5278" filterUnits="userSpaceOnUse" color-interpolation-filters="sRGB">
      <feFlood flood-opacity="0" result="BackgroundImageFix"/>
      <feColorMatrix in="SourceAlpha" type="matrix" values="0 0 0 0 0 0 0 0 0 0 0 0 0 0 0 0 0 0 127 0" result="hardAlpha"/>
      <feOffset dy="0.123703"/>
      <feGaussianBlur stdDeviation="0.0455686"/>
      <feColorMatrix type="matrix" values="0 0 0 0 0.0509804 0 0 0 0 0.121569 0 0 0 0 0.396078 0 0 0 0.189957 0"/>
      <feBlend mode="multiply" in2="BackgroundImageFix" result="effect1_dropShadow_2973_971"/>
      <feColorMatrix in="SourceAlpha" type="matrix" values="0 0 0 0 0 0 0 0 0 0 0 0 0 0 0 0 0 0 127 0" result="hardAlpha"/>
      <feOffset dy="0.242703"/>
      <feGaussianBlur stdDeviation="0.101348"/>
      <feColorMatrix type="matrix" values="0 0 0 0 0.0509804 0 0 0 0 0.121569 0 0 0 0 0.396078 0 0 0 0.368551 0"/>
      <feBlend mode="multiply" in2="effect1_dropShadow_2973_971" result="effect2_dropShadow_2973_971"/>
      <feColorMatrix in="SourceAlpha" type="matrix" values="0 0 0 0 0 0 0 0 0 0 0 0 0 0 0 0 0 0 127 0" result="hardAlpha"/>
      <feOffset dy="0.373252"/>
      <feGaussianBlur stdDeviation="0.173572"/>
      <feColorMatrix type="matrix" values="0 0 0 0 0.0509804 0 0 0 0 0.121569 0 0 0 0 0.396078 0 0 0 0.3 0"/>
      <feBlend mode="multiply" in2="effect2_dropShadow_2973_971" result="effect3_dropShadow_2973_971"/>
      <feColorMatrix in="SourceAlpha" type="matrix" values="0 0 0 0 0 0 0 0 0 0 0 0 0 0 0 0 0 0 127 0" result="hardAlpha"/>
      <feOffset dy="0.547679"/>
      <feGaussianBlur stdDeviation="0.551221"/>
      <feColorMatrix type="matrix" values="0 0 0 0 0.0509804 0 0 0 0 0.121569 0 0 0 0 0.396078 0 0 0 0.3 0"/>
      <feBlend mode="multiply" in2="effect3_dropShadow_2973_971" result="effect4_dropShadow_2973_971"/>
      <feColorMatrix in="SourceAlpha" type="matrix" values="0 0 0 0 0 0 0 0 0 0 0 0 0 0 0 0 0 0 127 0" result="hardAlpha"/>
      <feOffset dy="0.852209"/>
      <feGaussianBlur stdDeviation="1.0248"/>
      <feColorMatrix type="matrix" values="0 0 0 0 0.0509804 0 0 0 0 0.121569 0 0 0 0 0.396078 0 0 0 0.29 0"/>
      <feBlend mode="overlay" in2="effect4_dropShadow_2973_971" result="effect5_dropShadow_2973_971"/>
      <feColorMatrix in="SourceAlpha" type="matrix" values="0 0 0 0 0 0 0 0 0 0 0 0 0 0 0 0 0 0 127 0" result="hardAlpha"/>
      <feOffset dy="2.25397"/>
      <feGaussianBlur stdDeviation="1.80318"/>
      <feColorMatrix type="matrix" values="0 0 0 0 0.0509804 0 0 0 0 0.121569 0 0 0 0 0.396078 0 0 0 0.45 0"/>
      <feBlend mode="multiply" in2="effect5_dropShadow_2973_971" result="effect6_dropShadow_2973_971"/>
      <feBlend mode="normal" in="SourceGraphic" in2="effect6_dropShadow_2973_971" result="shape"/>
    </filter>
    <linearGradient id="paint0_linear_2973_971" x1="25.6472" y1="5.00882" x2="25.6472" y2="46.3241" gradientUnits="userSpaceOnUse" gradientTransform="matrix(1, 0, 0, 1, 0, -1.666483)">
      <stop stop-color="#A4C1FF"/>
      <stop offset="1" stop-color="#0E78F9"/>
    </linearGradient>
    <linearGradient id="paint1_linear_2973_971" x1="21.7383" y1="17.8314" x2="21.7383" y2="33.4088" gradientUnits="userSpaceOnUse">
      <stop stop-color="white"/>
      <stop offset="1" stop-color="#C5D4F7"/>
    </linearGradient>
    <linearGradient id="paint2_linear_2973_971" x1="21.7383" y1="17.8314" x2="21.7383" y2="33.4088" gradientUnits="userSpaceOnUse">
      <stop stop-color="white"/>
      <stop offset="1" stop-color="#637ACA"/>
    </linearGradient>
    <linearGradient id="paint3_linear_2973_971" x1="36.2889" y1="17.9817" x2="36.2889" y2="33.2967" gradientUnits="userSpaceOnUse">
      <stop stop-color="white"/>
      <stop offset="1" stop-color="#C5D4F7"/>
    </linearGradient>
    <linearGradient id="paint4_linear_2973_971" x1="36.2889" y1="17.9817" x2="36.2889" y2="33.2967" gradientUnits="userSpaceOnUse">
      <stop stop-color="white"/>
      <stop offset="1" stop-color="#637ACA"/>
    </linearGradient>
  </defs>
  <text style="fill: rgb(255, 255, 255); font-family: Arial, sans-serif; font-size: 28px; font-weight: 700; white-space: pre;" transform="matrix(1.096519, 0, 0, 1.118662, -7.236705, -79.515533)" x="51.6" y="102.211">Connectify</text>
</svg>